<?xml version="1.0" encoding="UTF-8"?>
<svg width="50px" height="50px" viewBox="0 0 50 50" version="1.1" xmlns="http://www.w3.org/2000/svg" xmlns:xlink="http://www.w3.org/1999/xlink">
    <!-- Generator: Sketch 63.1 (92452) - https://sketch.com -->
    <title>画板</title>
    <desc>Created with Sketch.</desc>
    <g id="画板" stroke="none" stroke-width="1" fill="none" fill-rule="evenodd">
        <g id="暂无图片">
            <rect id="矩形" fill="#E6EBF0" x="0" y="0" width="50" height="50"></rect>
            <g id="暂无图片-(1)" transform="translate(7.000000, 6.000000)" fill="#9AA8B8">
                <path d="M0,34.0046315 C0.707942238,33.9567247 1.45595668,33.9218834 2.23959085,33.8957525 L2.23959085,33.2119924 L0.400722022,33.2119924 L0.400722022,32.6719525 C0.520938628,32.5064564 0.730204573,32.1798194 1.02406739,31.7007518 L0.0756919374,31.7007518 L0.0756919374,31.1955533 L1.32683514,31.1955533 C1.49602888,30.8863369 1.65631769,30.5858309 1.8032491,30.2983903 L2.39097473,30.4769519 C2.29302046,30.7164857 2.16835138,30.9560195 2.02141998,31.1955533 L4.33670277,31.1955533 L4.33670277,31.7007518 L1.72755716,31.7007518 C1.43369434,32.1798194 1.2244284,32.5021013 1.10421179,32.6719525 L2.24404332,32.6719525 L2.24404332,32.0230337 L2.83176895,32.0230337 L2.83176895,32.6719525 L4.2654633,32.6719525 L4.2654633,33.2119924 L2.83176895,33.2119924 L2.83176895,33.8609112 C2.97870036,33.8609112 3.21022864,33.8478457 3.53080626,33.8260699 C3.84693141,33.8260699 4.08291215,33.8130044 4.22984356,33.7912286 C4.22984356,33.9828557 4.21648616,34.1614172 4.19422383,34.3312685 C4.04729242,34.3312685 3.82466907,34.344334 3.53080626,34.3661098 C3.21022864,34.3661098 2.97870036,34.3791752 2.83176895,34.400951 L2.83176895,35.0847112 L2.24404332,35.0847112 L2.24404332,34.4357923 C1.8032491,34.4836991 1.18880866,34.5316058 0.405174489,34.5795126 L0.0756919374,34.5795126 L0,34.0046315 L0,34.0046315 Z M1.36245487,35.298114 L7.46233454,35.298114 L7.46233454,38.891121 L6.83898917,38.891121 L6.83898917,38.5296427 L1.98580024,38.5296427 L1.98580024,38.891121 L1.36245487,38.891121 L1.36245487,35.298114 Z M1.98580024,35.8381538 L1.98580024,36.6656342 L6.8345367,36.6656342 L6.8345367,35.8381538 L1.98580024,35.8381538 Z M1.98580024,37.2013189 L1.98580024,37.993958 L6.8345367,37.993958 L6.8345367,37.2013189 L1.98580024,37.2013189 Z M4.85318893,31.0561881 C5.90397112,31.0561881 7.08387485,30.9603746 8.37954272,30.7687476 L8.56209386,31.3087874 C7.45788207,31.4525077 6.42045728,31.5352557 5.44091456,31.5613867 L5.44091456,32.6763077 L8.74909747,32.6763077 L8.74909747,33.2163475 L7.45788207,33.2163475 L7.45788207,35.0498699 L6.8345367,35.0498699 L6.8345367,33.2163475 L5.40084236,33.2163475 C5.32960289,33.8652664 5.04464501,34.5228955 4.55487365,35.1935902 C4.26101083,34.9322806 4.08736462,34.7885603 4.03838748,34.7624293 C4.62611312,34.1396414 4.89326113,33.2511888 4.84873646,32.1014265 L4.84873646,31.0561881 L4.85318893,31.0561881 L4.85318893,31.0561881 Z M10.2139591,31.0910294 L17.4536703,31.0910294 L17.4536703,31.7007518 L14.1098676,31.7007518 C14.0831528,32.4933909 14.0119134,33.1858614 13.8872443,33.7868735 L18.1126354,33.7868735 L18.1126354,34.4357923 L14.6575211,34.4357923 L14.6575211,37.2405154 C14.6308063,37.7457139 14.866787,37.9808926 15.3565584,37.9591168 L16.6077016,37.9591168 C17.0974729,37.9808926 17.355716,37.802331 17.3779783,37.4190769 C17.3779783,37.3232634 17.3913357,37.1926086 17.4135981,37.0227574 C17.4358604,36.713541 17.4625752,36.4478762 17.48929,36.2301182 C17.5605295,36.2562492 17.6851986,36.2910905 17.8588448,36.3389972 C18.0057762,36.413035 18.1170878,36.4609417 18.1883273,36.4827175 C18.1616125,36.9617851 18.1126354,37.3581047 18.0413959,37.667321 C17.9924188,38.3380157 17.5249097,38.647232 16.6433213,38.6036804 L15.209627,38.6036804 C14.3503008,38.6254562 13.9362214,38.2073609 13.9584838,37.3450392 L13.9584838,34.4357923 L13.7358604,34.4357923 C13.3173285,36.3302869 12.043923,37.8502378 9.9156438,39 C9.79097473,38.782242 9.62178099,38.5688392 9.39915764,38.3510812 C11.3849579,37.4147218 12.5826715,36.1125289 13.0012034,34.4357923 L9.54608905,34.4357923 L9.54608905,33.7868735 L13.1481348,33.7868735 C13.2950662,33.1902166 13.3707581,32.4933909 13.3707581,31.7007518 L10.2095066,31.7007518 L10.2095066,31.0910294 L10.2139591,31.0910294 L10.2139591,31.0910294 Z M19.2880866,30.7687476 L27.1155235,30.7687476 L27.1155235,38.891121 L26.4521059,38.891121 L26.4521059,38.4599602 L19.9515042,38.4599602 L19.9515042,38.891121 L19.2880866,38.891121 L19.2880866,30.7687476 Z M19.9515042,31.37847 L19.9515042,37.885079 L26.4521059,37.885079 L26.4521059,31.37847 L19.9515042,31.37847 Z M20.245367,33.4994329 C21.1002407,32.876645 21.7770156,32.2059504 22.266787,31.487349 L22.8545126,31.7399483 C22.7565584,31.9097995 22.6318893,32.0622301 22.4849579,32.2059504 L25.6061372,32.2059504 L25.6061372,32.7459902 C25.1386282,33.2990956 24.6132371,33.7520322 24.0255114,34.1135105 C24.688929,34.3791752 25.432491,34.5446713 26.2651023,34.618709 C26.2161252,34.7406535 26.1404332,34.9061496 26.0424789,35.1239076 C26.0647413,35.0760008 26.0424789,35.1239076 25.966787,35.2676279 C24.9382671,35.0760008 24.078941,34.8146912 23.3932611,34.4749888 C22.6318893,34.8582428 21.6300842,35.1805247 20.378941,35.4461894 C20.3299639,35.2806934 20.2320096,35.0760008 20.0850782,34.836467 C21.0423586,34.6927468 21.9239471,34.453213 22.7298436,34.1178656 C22.2623345,33.7825183 21.8838748,33.4602365 21.590012,33.146665 C21.2961492,33.4602365 20.988929,33.7215461 20.6728039,33.9393041 C20.4412756,33.69106 20.2943442,33.5473397 20.245367,33.4994329 L20.245367,33.4994329 Z M20.9043321,36.8441958 L21.0868833,36.2693147 C21.2827918,36.2954456 21.6256318,36.3433524 22.1154031,36.413035 C23.8073406,36.6525688 24.8848375,36.8311303 25.3478941,36.9530748 L25.1252708,37.6019936 C23.9320096,37.3101979 22.5250301,37.0575986 20.9043321,36.8441958 L20.9043321,36.8441958 Z M21.8259928,35.7292748 L22.0085439,35.1195524 C22.1064982,35.1456834 22.266787,35.1674592 22.4849579,35.1935902 C23.611432,35.3852172 24.3728039,35.515872 24.7646209,35.5899097 L24.5419976,36.1996321 C23.611432,36.0036499 22.7075812,35.8468642 21.8259928,35.7292748 L21.8259928,35.7292748 Z M24.7646209,32.7808315 L22.0842359,32.7808315 C22.4537906,33.1902166 22.8945848,33.5255639 23.4066185,33.7868735 C23.9676294,33.4776571 24.421781,33.1423098 24.7646209,32.7808315 Z M33.8743682,30.4464657 L34.5734055,30.4464657 L34.5734055,32.9637482 L37,32.9637482 L37,33.6126671 L30.6062575,33.6126671 L30.6062575,34.183193 C30.6062575,34.5446713 30.5929001,34.8669532 30.5706378,35.1543937 L34.9429603,35.1543937 L34.9429603,38.891121 L34.243923,38.891121 L34.243923,35.7989574 L30.5350181,35.7989574 C30.4370638,36.9966264 29.9472924,38.0375096 29.065704,38.9259623 C28.990012,38.8562797 28.8920578,38.7474007 28.7718412,38.6036804 C28.6249097,38.4599602 28.5403129,38.3641466 28.5135981,38.3162399 C29.5154031,37.4321424 29.9829122,36.0646222 29.9116727,34.2180343 L29.9116727,30.6250273 L30.61071,30.6250273 L30.61071,32.9593931 L33.8788207,32.9593931 L33.8788207,30.4464657 L33.8743682,30.4464657 L33.8743682,30.4464657 Z M3.1345367,3.84514842 L3.1345367,20.8738241 C3.1345367,22.4634575 3.45511432,22.7639635 5.02238267,22.7639635 L26.4031288,22.7639635 C27.9570397,22.7639635 28.2909747,22.4721678 28.2909747,20.8738241 L28.2909747,3.84514842 C28.2909747,2.2903563 27.9971119,1.95500898 26.4031288,1.95500898 L5.02238267,1.95500898 C3.45956679,1.95500898 3.1345367,2.22067374 3.1345367,3.84514842 Z M25.3256318,18.3478312 L6.1087846,18.3478312 C8.21034898,15.2774434 11.9415162,10.1557753 12.8943442,10.1557753 C13.8115523,10.1557753 16.9282792,14.2931773 18.3397112,15.7478007 C18.3397112,15.7478007 20.1518652,13.3176214 21.1002407,13.3176214 C22.066426,13.3263318 25.2944645,18.3260554 25.3256318,18.3478312 L25.3256318,18.3478312 Z M19.6799037,7.62978247 C19.6799037,6.34065511 20.7173285,5.30412703 21.999639,5.30412703 C23.2819495,5.30412703 24.3193742,6.34501027 24.3193742,7.62978247 C24.3193742,8.91455467 23.2819495,9.95543791 21.999639,9.95543791 C20.7173285,9.95543791 19.6799037,8.91890983 19.6799037,7.62978247 L19.6799037,7.62978247 Z M14.9291215,0.813957058 L11.2513839,0.112776297 C10.0314079,-0.122402343 9.54608905,-0.035299143 9.24777377,0.813957058 L14.9291215,0.813957058 L14.9291215,0.813957058 Z M32.2581227,4.11081318 L29.3818291,3.56206302 L29.3818291,20.8955999 C29.3818291,21.688239 29.3283995,22.5897571 28.7006017,23.2038347 C28.0906137,23.8048467 27.2090253,23.8527535 26.4298436,23.8527535 L24.6933815,23.8527535 L28.3844765,24.5582894 C29.9072202,24.8500851 30.2901324,24.6236168 30.5884477,23.0514041 L33.7541516,6.31887931 C34.0480144,4.7945733 33.8209386,4.40696406 32.2581227,4.11081318 Z" id="形状"></path>
            </g>
        </g>
    </g>
</svg>